<mxfile host="65bd71144e">
    <diagram name="High Level Architecture" id="high-level-arch">
        <mxGraphModel dx="907" dy="725" grid="1" gridSize="10" guides="1" tooltips="1" connect="1" arrows="1" fold="1" page="1" pageScale="1" pageWidth="1169" pageHeight="827" math="0" shadow="0">
            <root>
                <mxCell id="0"/>
                <mxCell id="1" parent="0"/>
                <mxCell id="title" value="AI Document Processing System - Centralized Architecture (2025)" style="text;strokeColor=none;fillColor=none;html=1;fontSize=20;fontStyle=1;verticalAlign=middle;align=center;" parent="1" vertex="1">
                    <mxGeometry x="200" y="20" width="800" height="40" as="geometry"/>
                </mxCell>
                <mxCell id="input-layer" value="Document Input Layer" style="rounded=1;whiteSpace=wrap;html=1;fillColor=#dae8fc;strokeColor=#6c8ebf;fontSize=14;fontStyle=1;" parent="1" vertex="1">
                    <mxGeometry x="50" y="100" width="200" height="80" as="geometry"/>
                </mxCell>
                <mxCell id="id-card" value="ID Cards" style="rounded=1;whiteSpace=wrap;html=1;fillColor=#e1d5e7;strokeColor=#9673a6;" parent="1" vertex="1">
                    <mxGeometry x="30" y="220" width="80" height="40" as="geometry"/>
                </mxCell>
                <mxCell id="driver-license" value="Driver License" style="rounded=1;whiteSpace=wrap;html=1;fillColor=#e1d5e7;strokeColor=#9673a6;" parent="1" vertex="1">
                    <mxGeometry x="120" y="220" width="80" height="40" as="geometry"/>
                </mxCell>
                <mxCell id="passport" value="Passport" style="rounded=1;whiteSpace=wrap;html=1;fillColor=#e1d5e7;strokeColor=#9673a6;" parent="1" vertex="1">
                    <mxGeometry x="210" y="220" width="80" height="40" as="geometry"/>
                </mxCell>
                <mxCell id="config-system" value="Centralized Configuration System" style="rounded=1;whiteSpace=wrap;html=1;fillColor=#fff2cc;strokeColor=#d6b656;fontSize=14;fontStyle=1;" vertex="1" parent="1">
                    <mxGeometry x="350" y="100" width="250" height="80" as="geometry"/>
                </mxCell>
                <mxCell id="yaml-config" value="prompts.yaml" style="rounded=0;whiteSpace=wrap;html=1;fillColor=#ffe6cc;strokeColor=#d79b00;fontSize=11;" vertex="1" parent="1">
                    <mxGeometry x="330" y="200" width="90" height="30" as="geometry"/>
                </mxCell>
                <mxCell id="config-loader" value="ConfigLoader" style="rounded=0;whiteSpace=wrap;html=1;fillColor=#ffe6cc;strokeColor=#d79b00;fontSize=11;" vertex="1" parent="1">
                    <mxGeometry x="430" y="200" width="90" height="30" as="geometry"/>
                </mxCell>
                <mxCell id="manager-core" value="Core Managers" style="rounded=0;whiteSpace=wrap;html=1;fillColor=#ffe6cc;strokeColor=#d79b00;fontSize=11;" vertex="1" parent="1">
                    <mxGeometry x="530" y="200" width="90" height="30" as="geometry"/>
                </mxCell>
                <mxCell id="mcp-server" value="MCP Server (Model Context Protocol)" style="rounded=1;whiteSpace=wrap;html=1;fillColor=#e6ccff;strokeColor=#9966ff;fontSize=14;fontStyle=1;" vertex="1" parent="1">
                    <mxGeometry x="680" y="100" width="250" height="80" as="geometry"/>
                </mxCell>
                <mxCell id="document-classify" value="document/classify" style="rounded=0;whiteSpace=wrap;html=1;fillColor=#f0e6ff;strokeColor=#b366d9;fontSize=10;" vertex="1" parent="1">
                    <mxGeometry x="660" y="200" width="90" height="30" as="geometry"/>
                </mxCell>
                <mxCell id="document-extract" value="document/extract" style="rounded=0;whiteSpace=wrap;html=1;fillColor=#f0e6ff;strokeColor=#b366d9;fontSize=10;" vertex="1" parent="1">
                    <mxGeometry x="760" y="200" width="90" height="30" as="geometry"/>
                </mxCell>
                <mxCell id="document-analyze" value="document/analyze" style="rounded=0;whiteSpace=wrap;html=1;fillColor=#f0e6ff;strokeColor=#b366d9;fontSize=10;" vertex="1" parent="1">
                    <mxGeometry x="860" y="200" width="90" height="30" as="geometry"/>
                </mxCell>
                <mxCell id="manager-layer" value="Core Manager Layer (Centralized)" style="rounded=1;whiteSpace=wrap;html=1;fillColor=#ccf2ff;strokeColor=#0099cc;fontSize=14;fontStyle=1;" vertex="1" parent="1">
                    <mxGeometry x="50" y="280" width="1210" height="60" as="geometry"/>
                </mxCell>
                <mxCell id="llm-manager" value="LLM Manager" style="rounded=0;whiteSpace=wrap;html=1;fillColor=#e6f7ff;strokeColor=#1890ff;fontSize=11;" vertex="1" parent="1">
                    <mxGeometry x="70" y="360" width="100" height="40" as="geometry"/>
                </mxCell>
                <mxCell id="mcp-manager" value="MCP Manager" style="rounded=0;whiteSpace=wrap;html=1;fillColor=#e6f7ff;strokeColor=#1890ff;fontSize=11;" vertex="1" parent="1">
                    <mxGeometry x="190" y="360" width="100" height="40" as="geometry"/>
                </mxCell>
                <mxCell id="tool-manager" value="Tool Manager" style="rounded=0;whiteSpace=wrap;html=1;fillColor=#e6f7ff;strokeColor=#1890ff;fontSize=11;" vertex="1" parent="1">
                    <mxGeometry x="310" y="360" width="100" height="40" as="geometry"/>
                </mxCell>
                <mxCell id="processor-manager" value="Processor Manager" style="rounded=0;whiteSpace=wrap;html=1;fillColor=#e6f7ff;strokeColor=#1890ff;fontSize=11;" vertex="1" parent="1">
                    <mxGeometry x="430" y="360" width="120" height="40" as="geometry"/>
                </mxCell>
                <mxCell id="progress-manager" value="Progress Manager" style="rounded=0;whiteSpace=wrap;html=1;fillColor=#e6f7ff;strokeColor=#1890ff;fontSize=11;" vertex="1" parent="1">
                    <mxGeometry x="570" y="360" width="120" height="40" as="geometry"/>
                </mxCell>
                <mxCell id="report-manager" value="Report Manager" style="rounded=0;whiteSpace=wrap;html=1;fillColor=#e6f7ff;strokeColor=#1890ff;fontSize=11;" vertex="1" parent="1">
                    <mxGeometry x="710" y="360" width="120" height="40" as="geometry"/>
                </mxCell>
                <mxCell id="prompt-manager" value="Prompt Manager" style="rounded=0;whiteSpace=wrap;html=1;fillColor=#e6f7ff;strokeColor=#1890ff;fontSize=11;" vertex="1" parent="1">
                    <mxGeometry x="910" y="360" width="120" height="40" as="geometry"/>
                </mxCell>
                <mxCell id="crewai-engine" value="CrewAI&amp;nbsp;&lt;div&gt;Processing Engine&lt;/div&gt;" style="rounded=1;whiteSpace=wrap;html=1;fillColor=#d5e8d4;strokeColor=#82b366;fontSize=14;fontStyle=1;" parent="1" vertex="1">
                    <mxGeometry x="150" y="440" width="200" height="80" as="geometry"/>
                </mxCell>
                <mxCell id="langchain-engine" value="LangChain&amp;nbsp;&lt;div&gt;Processing Engine&lt;/div&gt;" style="rounded=1;whiteSpace=wrap;html=1;fillColor=#f8cecc;strokeColor=#b85450;fontSize=14;fontStyle=1;" parent="1" vertex="1">
                    <mxGeometry x="400" y="440" width="200" height="80" as="geometry"/>
                </mxCell>
                <mxCell id="unified-tools" value="Unified Tool System" style="rounded=1;whiteSpace=wrap;html=1;fillColor=#fff2cc;strokeColor=#d6b656;fontSize=14;fontStyle=1;" vertex="1" parent="1">
                    <mxGeometry x="650" y="440" width="200" height="80" as="geometry"/>
                </mxCell>
                <mxCell id="crewai-agents" value="CrewAI Agents" style="rounded=0;whiteSpace=wrap;html=1;fillColor=#d5e8d4;strokeColor=#82b366;fontSize=11;" vertex="1" parent="1">
                    <mxGeometry x="120" y="540" width="100" height="30" as="geometry"/>
                </mxCell>
                <mxCell id="crewai-tasks" value="Tasks" style="rounded=0;whiteSpace=wrap;html=1;fillColor=#d5e8d4;strokeColor=#82b366;fontSize=11;" vertex="1" parent="1">
                    <mxGeometry x="230" y="540" width="80" height="30" as="geometry"/>
                </mxCell>
                <mxCell id="crewai-crew" value="Crews" style="rounded=0;whiteSpace=wrap;html=1;fillColor=#d5e8d4;strokeColor=#82b366;fontSize=11;" vertex="1" parent="1">
                    <mxGeometry x="320" y="540" width="70" height="30" as="geometry"/>
                </mxCell>
                <mxCell id="langchain-chains" value="LangChain Agents" style="rounded=0;whiteSpace=wrap;html=1;fillColor=#f8cecc;strokeColor=#b85450;fontSize=11;" vertex="1" parent="1">
                    <mxGeometry x="380" y="540" width="120" height="30" as="geometry"/>
                </mxCell>
                <mxCell id="langchain-prompts" value="Prompt Templates" style="rounded=0;whiteSpace=wrap;html=1;fillColor=#f8cecc;strokeColor=#b85450;fontSize=11;" vertex="1" parent="1">
                    <mxGeometry x="510" y="540" width="110" height="30" as="geometry"/>
                </mxCell>
                <mxCell id="tool-adapters" value="Framework Adapters" style="rounded=0;whiteSpace=wrap;html=1;fillColor=#ffe6cc;strokeColor=#d79b00;fontSize=11;" vertex="1" parent="1">
                    <mxGeometry x="630" y="540" width="120" height="30" as="geometry"/>
                </mxCell>
                <mxCell id="tool-registry" value="Tool Registry" style="rounded=0;whiteSpace=wrap;html=1;fillColor=#ffe6cc;strokeColor=#d79b00;fontSize=11;" vertex="1" parent="1">
                    <mxGeometry x="760" y="540" width="100" height="30" as="geometry"/>
                </mxCell>
                <mxCell id="progress-tracking" value="Progress Tracking &amp; Analytics" style="rounded=1;whiteSpace=wrap;html=1;fillColor=#e6f7ff;strokeColor=#1890ff;fontSize=14;fontStyle=1;" parent="1" vertex="1">
                    <mxGeometry x="1080" y="350" width="200" height="80" as="geometry"/>
                </mxCell>
                <mxCell id="output-layer" value="Output &amp; Reporting Layer" style="rounded=1;whiteSpace=wrap;html=1;fillColor=#f0f0f0;strokeColor=#666666;fontSize=14;fontStyle=1;" parent="1" vertex="1">
                    <mxGeometry x="1060" y="740" width="200" height="80" as="geometry"/>
                </mxCell>
                <mxCell id="excel-reports" value="Excel Reports" style="rounded=1;whiteSpace=wrap;html=1;fillColor=#d5e8d4;strokeColor=#82b366;" parent="1" vertex="1">
                    <mxGeometry x="650" y="460" width="100" height="40" as="geometry"/>
                </mxCell>
                <mxCell id="json-data" value="JSON Data" style="rounded=1;whiteSpace=wrap;html=1;fillColor=#d5e8d4;strokeColor=#82b366;" parent="1" vertex="1">
                    <mxGeometry x="760" y="460" width="100" height="40" as="geometry"/>
                </mxCell>
                <mxCell id="metrics" value="Performance Metrics" style="rounded=1;whiteSpace=wrap;html=1;fillColor=#d5e8d4;strokeColor=#82b366;" parent="1" vertex="1">
                    <mxGeometry x="870" y="460" width="100" height="40" as="geometry"/>
                </mxCell>
                <mxCell id="arrow1" style="edgeStyle=orthogonalEdgeStyle;rounded=0;orthogonalLoop=1;jettySize=auto;html=1;strokeWidth=2;fillColor=#dae8fc;strokeColor=#6c8ebf;" parent="1" source="input-layer" edge="1">
                    <mxGeometry relative="1" as="geometry"/>
                </mxCell>
                <mxCell id="arrow2" style="edgeStyle=orthogonalEdgeStyle;rounded=0;orthogonalLoop=1;jettySize=auto;html=1;strokeWidth=2;fillColor=#fff2cc;strokeColor=#d6b656;" parent="1" target="crewai-engine" edge="1">
                    <mxGeometry relative="1" as="geometry"/>
                </mxCell>
                <mxCell id="arrow3" style="edgeStyle=orthogonalEdgeStyle;rounded=0;orthogonalLoop=1;jettySize=auto;html=1;strokeWidth=2;fillColor=#fff2cc;strokeColor=#d6b656;" parent="1" target="langchain-engine" edge="1">
                    <mxGeometry relative="1" as="geometry"/>
                </mxCell>
                <mxCell id="arrow4" style="edgeStyle=orthogonalEdgeStyle;rounded=0;orthogonalLoop=1;jettySize=auto;html=1;strokeWidth=2;fillColor=#d5e8d4;strokeColor=#82b366;" parent="1" source="crewai-engine" target="progress-tracking" edge="1">
                    <mxGeometry relative="1" as="geometry"/>
                </mxCell>
                <mxCell id="arrow5" style="edgeStyle=orthogonalEdgeStyle;rounded=0;orthogonalLoop=1;jettySize=auto;html=1;strokeWidth=2;fillColor=#f8cecc;strokeColor=#b85450;" parent="1" source="langchain-engine" target="progress-tracking" edge="1">
                    <mxGeometry relative="1" as="geometry"/>
                </mxCell>
                <mxCell id="arrow6" style="edgeStyle=orthogonalEdgeStyle;rounded=0;orthogonalLoop=1;jettySize=auto;html=1;strokeWidth=2;fillColor=#e6f7ff;strokeColor=#1890ff;" parent="1" source="progress-tracking" target="output-layer" edge="1">
                    <mxGeometry relative="1" as="geometry"/>
                </mxCell>
                <mxCell id="doc-arrow1" style="edgeStyle=orthogonalEdgeStyle;rounded=0;orthogonalLoop=1;jettySize=auto;html=1;strokeWidth=1;strokeColor=#9673a6;" parent="1" source="id-card" target="input-layer" edge="1">
                    <mxGeometry relative="1" as="geometry"/>
                </mxCell>
                <mxCell id="doc-arrow2" style="edgeStyle=orthogonalEdgeStyle;rounded=0;orthogonalLoop=1;jettySize=auto;html=1;strokeWidth=1;strokeColor=#9673a6;" parent="1" source="driver-license" target="input-layer" edge="1">
                    <mxGeometry relative="1" as="geometry"/>
                </mxCell>
                <mxCell id="doc-arrow3" style="edgeStyle=orthogonalEdgeStyle;rounded=0;orthogonalLoop=1;jettySize=auto;html=1;strokeWidth=1;strokeColor=#9673a6;" parent="1" source="passport" target="input-layer" edge="1">
                    <mxGeometry relative="1" as="geometry"/>
                </mxCell>
                <mxCell id="out-arrow1" style="edgeStyle=orthogonalEdgeStyle;rounded=0;orthogonalLoop=1;jettySize=auto;html=1;strokeWidth=1;strokeColor=#82b366;" parent="1" source="output-layer" target="excel-reports" edge="1">
                    <mxGeometry relative="1" as="geometry"/>
                </mxCell>
                <mxCell id="out-arrow2" style="edgeStyle=orthogonalEdgeStyle;rounded=0;orthogonalLoop=1;jettySize=auto;html=1;strokeWidth=1;strokeColor=#82b366;" parent="1" source="output-layer" target="json-data" edge="1">
                    <mxGeometry relative="1" as="geometry"/>
                </mxCell>
                <mxCell id="out-arrow3" style="edgeStyle=orthogonalEdgeStyle;rounded=0;orthogonalLoop=1;jettySize=auto;html=1;strokeWidth=1;strokeColor=#82b366;" parent="1" source="output-layer" target="metrics" edge="1">
                    <mxGeometry relative="1" as="geometry"/>
                </mxCell>
                <mxCell id="legend-title" value="Legend" style="text;strokeColor=none;fillColor=none;html=1;fontSize=14;fontStyle=1;verticalAlign=middle;align=left;" parent="1" vertex="1">
                    <mxGeometry x="50" y="580" width="100" height="30" as="geometry"/>
                </mxCell>
                <mxCell id="legend-input" value="Input Layer" style="rounded=1;whiteSpace=wrap;html=1;fillColor=#dae8fc;strokeColor=#6c8ebf;fontSize=10;" parent="1" vertex="1">
                    <mxGeometry x="50" y="610" width="80" height="25" as="geometry"/>
                </mxCell>
                <mxCell id="legend-processing" value="Processing" style="rounded=1;whiteSpace=wrap;html=1;fillColor=#d5e8d4;strokeColor=#82b366;fontSize=10;" parent="1" vertex="1">
                    <mxGeometry x="140" y="610" width="80" height="25" as="geometry"/>
                </mxCell>
                <mxCell id="legend-ai" value="AI Components" style="ellipse;whiteSpace=wrap;html=1;fillColor=#ffe6cc;strokeColor=#d79b00;fontSize=10;" parent="1" vertex="1">
                    <mxGeometry x="230" y="610" width="80" height="25" as="geometry"/>
                </mxCell>
                <mxCell id="legend-tracking" value="Tracking" style="rounded=1;whiteSpace=wrap;html=1;fillColor=#e6f7ff;strokeColor=#1890ff;fontSize=10;" parent="1" vertex="1">
                    <mxGeometry x="320" y="610" width="80" height="25" as="geometry"/>
                </mxCell>
                <mxCell id="legend-output" value="Output" style="rounded=1;whiteSpace=wrap;html=1;fillColor=#f0f0f0;strokeColor=#666666;fontSize=10;" parent="1" vertex="1">
                    <mxGeometry x="410" y="610" width="80" height="25" as="geometry"/>
                </mxCell>
                <mxCell id="features-title" value="Key Features:" style="text;strokeColor=none;fillColor=none;html=1;fontSize=14;fontStyle=1;verticalAlign=middle;align=left;" parent="1" vertex="1">
                    <mxGeometry x="550" y="580" width="120" height="30" as="geometry"/>
                </mxCell>
                <mxCell id="features-text" value="• Dual AI Framework Support (CrewAI + LangChain)&#xa;• Real-time Progress Tracking&#xa;• Comprehensive Performance Analytics&#xa;• Multiple Document Type Support&#xa;• Automated Accuracy Validation&#xa;• Excel Report Generation" style="text;strokeColor=none;fillColor=none;html=1;fontSize=11;verticalAlign=top;align=left;" parent="1" vertex="1">
                    <mxGeometry x="550" y="610" width="400" height="120" as="geometry"/>
                </mxCell>
            </root>
        </mxGraphModel>
    </diagram>
</mxfile>